<svg xmlns="http://www.w3.org/2000/svg" version="1.1" xmlns:xlink="http://www.w3.org/1999/xlink" xmlns:svgjs="http://svgjs.dev/svgjs" width="1500" height="1500" viewBox="0 0 1500 1500"><rect width="1500" height="1500" fill="#ffffff"></rect><g transform="matrix(0.6666666666666666,0,0,0.6666666666666666,249.39393939393938,435.99032258064517)"><svg viewBox="0 0 396 248" data-background-color="#ffffff" preserveAspectRatio="xMidYMid meet" height="939" width="1500" xmlns="http://www.w3.org/2000/svg" xmlns:xlink="http://www.w3.org/1999/xlink"><g id="tight-bounds" transform="matrix(1,0,0,1,0.2400000000000091,0.4000000000000057)"><svg viewBox="0 0 395.52 247.2" height="247.2" width="395.52"><g><svg></svg></g><g><svg viewBox="0 0 395.52 247.2" height="247.2" width="395.52"><mask id="b2c9e23f-1f7a-4791-ab30-7880633bda91"><rect width="640" height="400" fill="white"></rect><g transform="matrix(1,0,0,1,39.55199999999999,57.37486902798196)"><svg viewBox="0 0 316.416 132.45026194403607" height="132.45026194403607" width="316.416"><g><svg viewBox="0 0 316.416 132.45026194403607" height="132.45026194403607" width="316.416"><g><svg viewBox="0 0 316.416 132.45026194403607" height="132.45026194403607" width="316.416"><g><svg viewBox="0 0 316.416 132.45026194403607" height="132.45026194403607" width="316.416"><g id="SvgjsG2196"><svg viewBox="0 0 316.416 132.45026194403607" height="132.45026194403607" width="316.416" id="SvgjsSvg2195"><g><svg viewBox="0 0 316.416 75.82287556415214" height="75.82287556415214" width="316.416"><g transform="matrix(1,0,0,1,0,0)"><svg width="316.416" viewBox="-0.10000000000000009 -40.75 233.63 56.75" height="75.82287556415214" data-palette-color="#233565"><path d="M23.65 0L12.4-16.45 9.4-12.75 9.4 0 3.9 0 3.9-36.75 9.4-36.75 9.4-20.35 22-36.75 28.7-36.75 16.05-20.6 30.5 0 23.65 0ZM33.7 0L33.7-22.95 39.3-22.95 39.3 0 33.7 0ZM36.45-27.25Q34.9-27.25 33.85-28.3 32.8-29.35 32.8-30.9L32.8-30.9Q32.8-32.3 33.85-33.3 34.9-34.3 36.45-34.3L36.45-34.3Q37.95-34.3 39-33.3 40.05-32.3 40.05-30.9L40.05-30.9Q40.05-29.35 39.02-28.3 38-27.25 36.45-27.25L36.45-27.25ZM48.8 0L48.8-18.55 44.75-18.55 44.75-22.95 48.8-22.95 48.8-32.3 54.25-33.5 54.25-22.95 59.55-22.95 59.55-18.55 54.25-18.55 54.25 0 48.8 0ZM74.09 0.5Q70.99 0.5 68.37-0.98 65.74-2.45 64.17-5.18 62.59-7.9 62.59-11.55L62.59-11.55Q62.59-15.15 63.97-17.85 65.34-20.55 67.89-22.05 70.44-23.55 73.89-23.55L73.89-23.55Q75.89-23.55 77.64-22.85 79.39-22.15 80.59-21.13 81.79-20.1 82.19-19.1L82.19-19.1 82.29-22.95 87.44-22.95 87.44 0 82.34 0 82.24-4.05Q81.39-2.25 79.14-0.88 76.89 0.5 74.09 0.5L74.09 0.5ZM74.99-4Q77.84-4 79.79-5.98 81.74-7.95 81.74-11.15L81.74-11.15 81.74-11.5Q81.74-13.65 80.84-15.35 79.94-17.05 78.39-18 76.84-18.95 74.99-18.95L74.99-18.95Q71.79-18.95 70.04-16.88 68.29-14.8 68.29-11.5L68.29-11.5Q68.29-8.15 70.02-6.08 71.74-4 74.99-4L74.99-4ZM108.29 0.5Q105.49 0.5 103.27-0.88 101.04-2.25 100.19-4.05L100.19-4.05 100.09 0 94.89 0 94.89-36.75 100.19-36.75 100.19-22.6 99.94-18.7Q100.79-20.7 103.27-22.13 105.74-23.55 108.64-23.55L108.64-23.55Q112.04-23.55 114.57-22.03 117.09-20.5 118.44-17.78 119.79-15.05 119.79-11.45L119.79-11.45Q119.79-7.8 118.22-5.1 116.64-2.4 114.02-0.95 111.39 0.5 108.29 0.5L108.29 0.5ZM107.39-4Q110.64-4 112.39-6.08 114.14-8.15 114.14-11.45L114.14-11.45Q114.14-14.8 112.42-16.88 110.69-18.95 107.39-18.95L107.39-18.95Q104.54-18.95 102.59-16.98 100.64-15 100.64-11.8L100.64-11.8 100.64-11.45Q100.64-9.3 101.57-7.6 102.49-5.9 104.02-4.95 105.54-4 107.39-4L107.39-4ZM136.69 12Q134.14 12 131.66 11.3 129.19 10.6 128.14 10L128.14 10 129.34 5Q132.64 7.15 136.54 7.15L136.54 7.15Q139.54 7.15 141.59 5.7 143.64 4.25 143.69 0.05L143.69 0.05 143.69-4.05Q142.64-2.1 140.29-0.8 137.94 0.5 135.09 0.5L135.09 0.5Q132.09 0.5 129.59-0.98 127.09-2.45 125.64-5.2 124.19-7.95 124.19-11.6L124.19-11.6Q124.19-15.1 125.56-17.82 126.94-20.55 129.49-22.05 132.04-23.55 135.44-23.55L135.44-23.55Q137.44-23.55 139.19-22.85 140.94-22.15 142.16-21.13 143.39-20.1 143.79-19.1L143.79-19.1 143.89-22.95 148.99-22.95 148.99-0.15Q148.99 5.7 145.99 8.85 142.99 12 136.69 12L136.69 12ZM136.59-4.05Q139.44-4.05 141.39-6.03 143.34-8 143.34-11.2L143.34-11.2 143.34-11.55Q143.34-13.7 142.44-15.4 141.54-17.1 139.99-18.05 138.44-19 136.59-19L136.59-19Q133.39-19 131.64-16.93 129.89-14.85 129.89-11.55L129.89-11.55Q129.89-8.2 131.61-6.13 133.34-4.05 136.59-4.05L136.59-4.05ZM156.14 0L156.14-36.75 161.39-36.75 161.39-22.95 161.19-18.7Q162.14-20.8 164.24-22.18 166.34-23.55 169.14-23.55L169.14-23.55Q172.69-23.55 174.59-22.08 176.49-20.6 177.14-17.95 177.79-15.3 177.79-11.05L177.79-11.05 177.79 0 172.44 0 172.44-11.1Q172.44-14 172.11-15.65 171.79-17.3 170.81-18.15 169.84-19 167.99-19L167.99-19Q166.49-19 164.96-18.1 163.44-17.2 162.44-15.48 161.44-13.75 161.44-11.4L161.44-11.4 161.44 0 156.14 0ZM194.78 0.5Q191.68 0.5 189.06-0.98 186.43-2.45 184.86-5.18 183.28-7.9 183.28-11.55L183.28-11.55Q183.28-15.15 184.66-17.85 186.03-20.55 188.58-22.05 191.13-23.55 194.58-23.55L194.58-23.55Q196.58-23.55 198.33-22.85 200.08-22.15 201.28-21.13 202.48-20.1 202.88-19.1L202.88-19.1 202.98-22.95 208.13-22.95 208.13 0 203.03 0 202.93-4.05Q202.08-2.25 199.83-0.88 197.58 0.5 194.78 0.5L194.78 0.5ZM195.68-4Q198.53-4 200.48-5.98 202.43-7.95 202.43-11.15L202.43-11.15 202.43-11.5Q202.43-13.65 201.53-15.35 200.63-17.05 199.08-18 197.53-18.95 195.68-18.95L195.68-18.95Q192.48-18.95 190.73-16.88 188.98-14.8 188.98-11.5L188.98-11.5Q188.98-8.15 190.71-6.08 192.43-4 195.68-4L195.68-4ZM215.23 0L215.23-22.95 220.63-22.95 220.63-18.45Q221.43-20.75 223.23-22.15 225.03-23.55 227.33-23.55L227.33-23.55Q228.93-23.55 229.53-23.25L229.53-23.25 228.78-17.8Q228.33-18.1 226.83-18.1L226.83-18.1Q224.48-18.1 222.56-16.6 220.63-15.1 220.63-11.8L220.63-11.8 220.63 0 215.23 0Z" opacity="1" transform="matrix(1,0,0,1,0,0)" fill="black" class="wordmark-text-0" id="SvgjsPath2194" stroke-width="7" stroke="black" stroke-linejoin="round"></path></svg></g></svg></g><g transform="matrix(1,0,0,1,3.5,91.47530797885233)"><svg viewBox="0 0 309.416 40.974953965183744" height="40.974953965183744" width="309.416"><g transform="matrix(1,0,0,1,0,0)"><svg width="309.416" viewBox="0.20000000000000018 -42 412.24 55.449999999999996" height="40.974953965183744" data-palette-color="#233565"><path d="M13.65 0L4.2 0 4.2-34.85 13.5-34.85Q19.65-34.85 22.45-32.41 25.25-29.98 25.25-25.55L25.25-25.55Q25.25-23.58 24.3-21.53 23.35-19.48 21.18-18.45L21.18-18.45Q24.15-17.73 25.58-15.55 27-13.38 27-10.05L27-10.05Q27-5.45 23.85-2.73 20.7 0 13.65 0L13.65 0ZM13.5-29.9L13.5-29.9 10.5-29.9 10.5-20.25 14.55-20.25Q16.25-20.25 17.24-21.06 18.23-21.88 18.64-23.06 19.05-24.25 19.05-25.35L19.05-25.35Q19.05-27.15 18.26-28.14 17.48-29.13 16.2-29.51 14.93-29.9 13.5-29.9ZM14.05-15.6L14.05-15.6 10.5-15.6 10.5-5.05 14.35-5.05Q15.85-5.05 17.24-5.45 18.63-5.85 19.51-7 20.4-8.15 20.4-10.4L20.4-10.4Q20.4-12.68 19.46-13.79 18.53-14.9 17.06-15.25 15.6-15.6 14.05-15.6ZM39.78 0.6L39.78 0.6Q36 0.6 34.22-1.81 32.43-4.23 32.43-8.45L32.43-8.45 32.43-24.9 38.68-24.9 38.68-9Q38.68-6.95 39.43-5.65 40.18-4.35 41.98-4.35L41.98-4.35Q43.75-4.35 44.94-5.65 46.13-6.95 46.13-9L46.13-9 46.13-24.9 52.38-24.9 52.38 0 46.73 0 46.6-3.23Q45.68-1.75 44.09-0.58 42.5 0.6 39.78 0.6ZM67.76 9.45L61.61 9.45 65.66-1.7 56.31-24.9 63.26-24.9 66.96-13.8 68.56-8.05 70.16-13.8 73.91-24.9 80.46-24.9 67.76 9.45ZM100.72 0L94.62 0 94.62-38 100.72-38 100.72 0ZM117.85 0.65L117.85 0.65Q113.65 0.65 111.07-1.11 108.5-2.88 107.32-5.79 106.15-8.7 106.15-12.15L106.15-12.15Q106.15-15.78 107.48-18.81 108.82-21.85 111.41-23.68 114-25.5 117.75-25.5L117.75-25.5Q123.35-25.5 125.57-22.26 127.8-19.03 127.8-13.1L127.8-13.1Q127.8-12.58 127.77-11.78 127.75-10.98 127.7-10.4L127.7-10.4 112.7-10.4Q112.85-7.45 114.36-5.78 115.87-4.1 118.9-4.1L118.9-4.1Q120.45-4.1 122.22-4.79 124-5.48 124.85-6.45L124.85-6.45 126.85-1.7Q125.85-1.03 123.68-0.19 121.52 0.65 117.85 0.65ZM112.65-14.3L112.65-14.3 121.45-14.3Q121.45-16.93 120.98-18.31 120.52-19.7 119.72-20.23 118.92-20.75 117.9-20.75L117.9-20.75Q115.35-20.75 114.07-18.86 112.8-16.98 112.65-14.3ZM141.02 0.45L141.02 0.45Q138.3 0.45 136.56-0.06 134.82-0.58 133.86-1.24 132.9-1.9 132.52-2.35L132.52-2.35 134.37-7.1Q135.47-6.2 137.19-5.33 138.9-4.45 141.17-4.45L141.17-4.45Q142.95-4.45 143.66-5.18 144.37-5.9 144.37-6.75L144.37-6.75Q144.37-7.93 142.75-8.88 141.12-9.83 138.97-10.75L138.97-10.75Q137.7-11.3 136.27-12.15 134.85-13 133.84-14.4 132.82-15.8 132.82-18L132.82-18Q132.82-21.38 135.29-23.39 137.75-25.4 142.27-25.4L142.27-25.4Q145.17-25.4 147.19-24.54 149.2-23.68 149.87-23L149.87-23 148.17-18.5Q147.2-19.25 145.7-19.93 144.2-20.6 142.47-20.6L142.47-20.6Q140.57-20.6 139.82-20.1 139.07-19.6 139.07-18.5L139.07-18.5Q139.07-17.28 140.41-16.49 141.75-15.7 143.62-14.95L143.62-14.95Q146.75-13.73 148.66-11.94 150.57-10.15 150.57-7.4L150.57-7.4Q150.57-5.35 149.62-3.56 148.67-1.78 146.57-0.66 144.47 0.45 141.02 0.45ZM163.4 0.45L163.4 0.45Q160.68 0.45 158.94-0.06 157.2-0.58 156.24-1.24 155.28-1.9 154.9-2.35L154.9-2.35 156.75-7.1Q157.85-6.2 159.57-5.33 161.28-4.45 163.55-4.45L163.55-4.45Q165.33-4.45 166.04-5.18 166.75-5.9 166.75-6.75L166.75-6.75Q166.75-7.93 165.13-8.88 163.5-9.83 161.35-10.75L161.35-10.75Q160.08-11.3 158.65-12.15 157.23-13 156.22-14.4 155.2-15.8 155.2-18L155.2-18Q155.2-21.38 157.67-23.39 160.13-25.4 164.65-25.4L164.65-25.4Q167.55-25.4 169.57-24.54 171.58-23.68 172.25-23L172.25-23 170.55-18.5Q169.58-19.25 168.08-19.93 166.58-20.6 164.85-20.6L164.85-20.6Q162.95-20.6 162.2-20.1 161.45-19.6 161.45-18.5L161.45-18.5Q161.45-17.28 162.79-16.49 164.13-15.7 166-14.95L166-14.95Q169.13-13.73 171.04-11.94 172.95-10.15 172.95-7.4L172.95-7.4Q172.95-5.35 172-3.56 171.05-1.78 168.95-0.66 166.85 0.45 163.4 0.45ZM195.01 0L188.76 0 188.76-24.9 194.41-24.9 194.71-20.5Q195.11-21.48 195.95-22.58 196.79-23.68 198.27-24.44 199.76-25.2 202.11-25.2L202.11-25.2Q202.84-25.2 203.39-25.1 203.94-25 204.41-24.8L204.41-24.8 203.01-18.25Q202.21-19.05 200.56-19.05L200.56-19.05Q198.64-19.05 197.41-18.26 196.19-17.48 195.6-16.5 195.01-15.53 195.01-15L195.01-15 195.01 0ZM218.24 0.65L218.24 0.65Q214.04 0.65 211.47-1.11 208.89-2.88 207.72-5.79 206.54-8.7 206.54-12.15L206.54-12.15Q206.54-15.78 207.88-18.81 209.22-21.85 211.8-23.68 214.39-25.5 218.14-25.5L218.14-25.5Q223.74-25.5 225.97-22.26 228.19-19.03 228.19-13.1L228.19-13.1Q228.19-12.58 228.17-11.78 228.14-10.98 228.09-10.4L228.09-10.4 213.09-10.4Q213.24-7.45 214.75-5.78 216.27-4.1 219.29-4.1L219.29-4.1Q220.84-4.1 222.62-4.79 224.39-5.48 225.24-6.45L225.24-6.45 227.24-1.7Q226.24-1.03 224.08-0.19 221.92 0.65 218.24 0.65ZM213.04-14.3L213.04-14.3 221.84-14.3Q221.84-16.93 221.38-18.31 220.92-19.7 220.12-20.23 219.32-20.75 218.29-20.75L218.29-20.75Q215.74-20.75 214.47-18.86 213.19-16.98 213.04-14.3ZM239.62 0.7L239.62 0.7Q237.32 0.7 235.81-0.33 234.3-1.35 233.56-3.05 232.82-4.75 232.82-6.8L232.82-6.8Q232.82-7.95 233.41-9.33 234-10.7 235.5-11.95 237-13.2 239.72-14 242.45-14.8 246.72-14.8L246.72-14.8 246.72-15.95Q246.72-17.8 245.83-19.03 244.95-20.25 242.27-20.25L242.27-20.25Q240.32-20.25 238.46-19.59 236.6-18.93 235.72-17.95L235.72-17.95 233.72-22.75Q235.22-23.78 237.73-24.64 240.25-25.5 243.32-25.5L243.32-25.5Q247.02-25.5 249.07-24.38 251.12-23.25 251.95-21.19 252.77-19.13 252.77-16.35L252.77-16.35 252.77 0 247.42 0 246.97-3.55Q244.37 0.7 239.62 0.7ZM242.27-4.1L242.27-4.1Q243.4-4.1 244.68-5.01 245.97-5.93 246.72-7.35L246.72-7.35 246.72-10.9Q246.47-10.95 246.18-10.95 245.9-10.95 245.52-10.95L245.52-10.95Q244.15-10.95 242.63-10.64 241.12-10.33 240.07-9.55 239.02-8.78 239.02-7.4L239.02-7.4Q239.02-5.6 239.82-4.85 240.62-4.1 242.27-4.1ZM268.35 0.7L268.35 0.7Q265.32 0.7 263.1-0.93 260.87-2.55 259.66-5.5 258.45-8.45 258.45-12.4L258.45-12.4Q258.45-18.55 260.96-22.03 263.47-25.5 268.45-25.5L268.45-25.5Q271-25.5 272.76-24.24 274.52-22.98 275.05-20.6L275.05-20.6 274.6-24.25 274.6-38 280.5-38 280.5 0 275.05 0 275.05-5.1Q274.37-2.53 272.67-0.91 270.97 0.7 268.35 0.7ZM269.8-4.25L269.8-4.25Q271.6-4.25 273.02-6.14 274.45-8.03 274.45-12.3L274.45-12.3Q274.45-16.2 273.35-18.32 272.25-20.45 269.95-20.45L269.95-20.45Q268.77-20.45 267.61-19.73 266.45-19 265.67-17.24 264.9-15.48 264.9-12.4L264.9-12.4Q264.9-8.28 266.32-6.26 267.75-4.25 269.8-4.25ZM305.06 0L298.66 0 298.66-24.9 304.41-24.9 304.56-21.6Q305.53-23.1 307.27-24.3 309.01-25.5 311.91-25.5L311.91-25.5Q314.43-25.5 316.11-24.38 317.78-23.25 318.63-21.2L318.63-21.2Q319.58-22.78 321.37-24.14 323.16-25.5 326.36-25.5L326.36-25.5Q330.11-25.5 331.96-23.1 333.81-20.7 333.81-16.45L333.81-16.45 333.81 0 327.46 0 327.46-15.8Q327.46-17.88 326.66-19.16 325.86-20.45 324.06-20.45L324.06-20.45Q322.31-20.45 320.88-19.16 319.46-17.88 319.46-15.8L319.46-15.8 319.46 0 313.06 0 313.06-15.8Q313.06-17.88 312.14-19.21 311.23-20.55 309.46-20.55L309.46-20.55Q307.66-20.55 306.36-19.21 305.06-17.88 305.06-15.8L305.06-15.8 305.06 0ZM351.44 0.5L351.44 0.5Q345.94 0.5 342.94-2.95 339.94-6.4 339.94-12.5L339.94-12.5Q339.94-18.65 343.04-22.08 346.14-25.5 351.64-25.5L351.64-25.5Q357.16-25.5 360.05-21.96 362.94-18.43 362.94-12.5L362.94-12.5Q362.94-6.58 359.95-3.04 356.96 0.5 351.44 0.5ZM351.54-4.5L351.54-4.5Q356.29-4.5 356.29-12.5L356.29-12.5Q356.29-20.55 351.54-20.55L351.54-20.55Q349.19-20.55 347.89-18.69 346.59-16.82 346.59-12.5L346.59-12.5Q346.59-8.2 347.89-6.35 349.19-4.5 351.54-4.5ZM375.27 0L369.02 0 369.02-24.9 374.67-24.9 374.97-20.5Q375.37-21.48 376.2-22.58 377.04-23.68 378.53-24.44 380.02-25.2 382.37-25.2L382.37-25.2Q383.09-25.2 383.64-25.1 384.19-25 384.67-24.8L384.67-24.8 383.27-18.25Q382.47-19.05 380.82-19.05L380.82-19.05Q378.89-19.05 377.67-18.26 376.44-17.48 375.85-16.5 375.27-15.53 375.27-15L375.27-15 375.27 0ZM398.49 0.65L398.49 0.65Q394.29 0.65 391.72-1.11 389.14-2.88 387.97-5.79 386.79-8.7 386.79-12.15L386.79-12.15Q386.79-15.78 388.13-18.81 389.47-21.85 392.06-23.68 394.64-25.5 398.39-25.5L398.39-25.5Q403.99-25.5 406.22-22.26 408.44-19.03 408.44-13.1L408.44-13.1Q408.44-12.58 408.42-11.78 408.39-10.98 408.34-10.4L408.34-10.4 393.34-10.4Q393.49-7.45 395.01-5.78 396.52-4.1 399.54-4.1L399.54-4.1Q401.09-4.1 402.87-4.79 404.64-5.48 405.49-6.45L405.49-6.45 407.49-1.7Q406.49-1.03 404.33-0.19 402.17 0.65 398.49 0.65ZM393.29-14.3L393.29-14.3 402.09-14.3Q402.09-16.93 401.63-18.31 401.17-19.7 400.37-20.23 399.57-20.75 398.54-20.75L398.54-20.75Q395.99-20.75 394.72-18.86 393.44-16.98 393.29-14.3Z" opacity="1" transform="matrix(1,0,0,1,0,0)" fill="black" class="slogan-text-1" id="SvgjsPath2193" stroke-width="7" stroke="black" stroke-linejoin="round"></path></svg></g></svg></g></svg></g></svg></g></svg></g></svg></g></svg></g></mask><g transform="matrix(1,0,0,1,39.55199999999999,57.37486902798196)"><svg viewBox="0 0 316.416 132.45026194403607" height="132.45026194403607" width="316.416"><g><svg viewBox="0 0 316.416 132.45026194403607" height="132.45026194403607" width="316.416"><g><svg viewBox="0 0 316.416 132.45026194403607" height="132.45026194403607" width="316.416"><g><svg viewBox="0 0 316.416 132.45026194403607" height="132.45026194403607" width="316.416"><g id="textblocktransform"><svg viewBox="0 0 316.416 132.45026194403607" height="132.45026194403607" width="316.416" id="textblock"><g><svg viewBox="0 0 316.416 75.82287556415214" height="75.82287556415214" width="316.416"><g transform="matrix(1,0,0,1,0,0)"><svg width="316.416" viewBox="-0.10000000000000009 -40.75 233.63 56.75" height="75.82287556415214" data-palette-color="#233565"><path d="M23.65 0L12.4-16.45 9.4-12.75 9.4 0 3.9 0 3.9-36.75 9.4-36.75 9.4-20.35 22-36.75 28.7-36.75 16.05-20.6 30.5 0 23.65 0ZM33.7 0L33.7-22.95 39.3-22.95 39.3 0 33.7 0ZM36.45-27.25Q34.9-27.25 33.85-28.3 32.8-29.35 32.8-30.9L32.8-30.9Q32.8-32.3 33.85-33.3 34.9-34.3 36.45-34.3L36.45-34.3Q37.95-34.3 39-33.3 40.05-32.3 40.05-30.9L40.05-30.9Q40.05-29.35 39.02-28.3 38-27.25 36.45-27.25L36.45-27.25ZM48.8 0L48.8-18.55 44.75-18.55 44.75-22.95 48.8-22.95 48.8-32.3 54.25-33.5 54.25-22.95 59.55-22.95 59.55-18.55 54.25-18.55 54.25 0 48.8 0ZM74.09 0.5Q70.99 0.5 68.37-0.98 65.74-2.45 64.17-5.18 62.59-7.9 62.59-11.55L62.59-11.55Q62.59-15.15 63.97-17.85 65.34-20.55 67.89-22.05 70.44-23.55 73.89-23.55L73.89-23.55Q75.89-23.55 77.64-22.85 79.39-22.15 80.59-21.13 81.79-20.1 82.19-19.1L82.19-19.1 82.29-22.95 87.44-22.95 87.44 0 82.34 0 82.24-4.05Q81.39-2.25 79.14-0.88 76.89 0.5 74.09 0.5L74.09 0.5ZM74.99-4Q77.84-4 79.79-5.98 81.74-7.95 81.74-11.15L81.74-11.15 81.74-11.5Q81.74-13.65 80.84-15.35 79.94-17.05 78.39-18 76.84-18.95 74.99-18.95L74.99-18.95Q71.79-18.95 70.04-16.88 68.29-14.8 68.29-11.5L68.29-11.5Q68.29-8.15 70.02-6.08 71.74-4 74.99-4L74.99-4ZM108.29 0.5Q105.49 0.5 103.27-0.88 101.04-2.25 100.19-4.05L100.19-4.05 100.09 0 94.89 0 94.89-36.75 100.19-36.75 100.19-22.6 99.94-18.7Q100.79-20.7 103.27-22.13 105.74-23.55 108.64-23.55L108.64-23.55Q112.04-23.55 114.57-22.03 117.09-20.5 118.44-17.78 119.79-15.05 119.79-11.45L119.79-11.45Q119.79-7.8 118.22-5.1 116.64-2.4 114.02-0.95 111.39 0.5 108.29 0.5L108.29 0.5ZM107.39-4Q110.64-4 112.39-6.08 114.14-8.15 114.14-11.45L114.14-11.45Q114.14-14.8 112.42-16.88 110.69-18.95 107.39-18.95L107.39-18.95Q104.54-18.95 102.59-16.98 100.64-15 100.64-11.8L100.64-11.8 100.64-11.45Q100.64-9.3 101.57-7.6 102.49-5.9 104.02-4.95 105.54-4 107.39-4L107.39-4ZM136.69 12Q134.14 12 131.66 11.3 129.19 10.6 128.14 10L128.14 10 129.34 5Q132.64 7.15 136.54 7.15L136.54 7.15Q139.54 7.15 141.59 5.7 143.64 4.25 143.69 0.05L143.69 0.05 143.69-4.05Q142.64-2.1 140.29-0.8 137.94 0.5 135.09 0.5L135.09 0.5Q132.09 0.5 129.59-0.98 127.09-2.45 125.64-5.2 124.19-7.95 124.19-11.6L124.19-11.6Q124.19-15.1 125.56-17.82 126.94-20.55 129.49-22.05 132.04-23.55 135.44-23.55L135.44-23.55Q137.44-23.55 139.19-22.85 140.94-22.15 142.16-21.13 143.39-20.1 143.79-19.1L143.79-19.1 143.89-22.95 148.99-22.95 148.99-0.15Q148.99 5.7 145.99 8.85 142.99 12 136.69 12L136.69 12ZM136.59-4.05Q139.44-4.05 141.39-6.03 143.34-8 143.34-11.2L143.34-11.2 143.34-11.55Q143.34-13.7 142.44-15.4 141.54-17.1 139.99-18.05 138.44-19 136.59-19L136.59-19Q133.39-19 131.64-16.93 129.89-14.85 129.89-11.55L129.89-11.55Q129.89-8.2 131.61-6.13 133.34-4.05 136.59-4.05L136.59-4.05ZM156.14 0L156.14-36.75 161.39-36.75 161.39-22.95 161.19-18.7Q162.14-20.8 164.24-22.18 166.34-23.55 169.14-23.55L169.14-23.55Q172.69-23.55 174.59-22.08 176.49-20.6 177.14-17.95 177.79-15.3 177.79-11.05L177.79-11.05 177.79 0 172.44 0 172.44-11.1Q172.44-14 172.11-15.65 171.79-17.3 170.81-18.15 169.84-19 167.99-19L167.99-19Q166.49-19 164.96-18.1 163.44-17.2 162.44-15.48 161.44-13.75 161.44-11.4L161.44-11.4 161.44 0 156.14 0ZM194.78 0.5Q191.68 0.5 189.06-0.98 186.43-2.45 184.86-5.18 183.28-7.9 183.28-11.55L183.28-11.55Q183.28-15.15 184.66-17.85 186.03-20.55 188.58-22.05 191.13-23.55 194.58-23.55L194.58-23.55Q196.58-23.55 198.33-22.85 200.08-22.15 201.28-21.13 202.48-20.1 202.88-19.1L202.88-19.1 202.98-22.95 208.13-22.95 208.13 0 203.03 0 202.93-4.05Q202.08-2.25 199.83-0.88 197.58 0.5 194.78 0.5L194.78 0.5ZM195.68-4Q198.53-4 200.48-5.98 202.43-7.95 202.43-11.15L202.43-11.15 202.43-11.5Q202.43-13.65 201.53-15.35 200.63-17.05 199.08-18 197.53-18.95 195.68-18.95L195.68-18.95Q192.48-18.95 190.73-16.88 188.98-14.8 188.98-11.5L188.98-11.5Q188.98-8.15 190.71-6.08 192.43-4 195.68-4L195.68-4ZM215.23 0L215.23-22.95 220.63-22.95 220.63-18.45Q221.43-20.75 223.23-22.15 225.03-23.55 227.33-23.55L227.33-23.55Q228.93-23.55 229.53-23.25L229.53-23.25 228.78-17.8Q228.33-18.1 226.83-18.1L226.83-18.1Q224.48-18.1 222.56-16.6 220.63-15.1 220.63-11.8L220.63-11.8 220.63 0 215.23 0Z" opacity="1" transform="matrix(1,0,0,1,0,0)" fill="#000000" class="wordmark-text-0" data-fill-palette-color="primary" id="text-0"></path></svg></g></svg></g><g transform="matrix(1,0,0,1,3.5,91.47530797885233)"><svg viewBox="0 0 309.416 40.974953965183744" height="40.974953965183744" width="309.416"><g transform="matrix(1,0,0,1,0,0)"><svg width="309.416" viewBox="0.20000000000000018 -42 412.24 55.449999999999996" height="40.974953965183744" data-palette-color="#233565"><path d="M13.65 0L4.2 0 4.2-34.85 13.5-34.85Q19.65-34.85 22.45-32.41 25.25-29.98 25.25-25.55L25.25-25.55Q25.25-23.58 24.3-21.53 23.35-19.48 21.18-18.45L21.18-18.45Q24.15-17.73 25.58-15.55 27-13.38 27-10.05L27-10.05Q27-5.45 23.85-2.73 20.7 0 13.65 0L13.65 0ZM13.5-29.9L13.5-29.9 10.5-29.9 10.5-20.25 14.55-20.25Q16.25-20.25 17.24-21.06 18.23-21.88 18.64-23.06 19.05-24.25 19.05-25.35L19.05-25.35Q19.05-27.15 18.26-28.14 17.48-29.13 16.2-29.51 14.93-29.9 13.5-29.9ZM14.05-15.6L14.05-15.6 10.5-15.6 10.5-5.05 14.35-5.05Q15.85-5.05 17.24-5.45 18.63-5.85 19.51-7 20.4-8.15 20.4-10.4L20.4-10.4Q20.4-12.68 19.46-13.79 18.53-14.9 17.06-15.25 15.6-15.6 14.05-15.6ZM39.78 0.6L39.78 0.6Q36 0.6 34.22-1.81 32.43-4.23 32.43-8.45L32.43-8.45 32.43-24.9 38.68-24.9 38.68-9Q38.68-6.95 39.43-5.65 40.18-4.35 41.98-4.35L41.98-4.35Q43.75-4.35 44.94-5.65 46.13-6.95 46.13-9L46.13-9 46.13-24.9 52.38-24.9 52.38 0 46.73 0 46.6-3.23Q45.68-1.75 44.09-0.58 42.5 0.6 39.78 0.6ZM67.76 9.45L61.61 9.45 65.66-1.7 56.31-24.9 63.26-24.9 66.96-13.8 68.56-8.05 70.16-13.8 73.91-24.9 80.46-24.9 67.76 9.45ZM100.72 0L94.62 0 94.62-38 100.72-38 100.72 0ZM117.85 0.65L117.85 0.65Q113.65 0.65 111.07-1.11 108.5-2.88 107.32-5.79 106.15-8.7 106.15-12.15L106.15-12.15Q106.15-15.78 107.48-18.81 108.82-21.85 111.41-23.68 114-25.5 117.75-25.5L117.75-25.5Q123.35-25.5 125.57-22.26 127.8-19.03 127.8-13.1L127.8-13.1Q127.8-12.58 127.77-11.78 127.75-10.98 127.7-10.4L127.7-10.4 112.7-10.4Q112.85-7.45 114.36-5.78 115.87-4.1 118.9-4.1L118.9-4.1Q120.45-4.1 122.22-4.79 124-5.48 124.85-6.45L124.85-6.45 126.85-1.7Q125.85-1.03 123.68-0.19 121.52 0.65 117.85 0.65ZM112.65-14.3L112.65-14.3 121.45-14.3Q121.45-16.93 120.98-18.31 120.52-19.7 119.72-20.23 118.92-20.75 117.9-20.75L117.9-20.75Q115.35-20.75 114.07-18.86 112.8-16.98 112.65-14.3ZM141.02 0.45L141.02 0.45Q138.3 0.45 136.56-0.06 134.82-0.58 133.86-1.24 132.9-1.9 132.52-2.35L132.52-2.35 134.37-7.1Q135.47-6.2 137.19-5.33 138.9-4.45 141.17-4.45L141.17-4.45Q142.95-4.45 143.66-5.18 144.37-5.9 144.37-6.75L144.37-6.75Q144.37-7.93 142.75-8.88 141.12-9.83 138.97-10.75L138.97-10.75Q137.7-11.3 136.27-12.15 134.85-13 133.84-14.4 132.82-15.8 132.82-18L132.82-18Q132.82-21.38 135.29-23.39 137.75-25.4 142.27-25.4L142.27-25.4Q145.17-25.4 147.19-24.54 149.2-23.68 149.87-23L149.87-23 148.17-18.5Q147.2-19.25 145.7-19.93 144.2-20.6 142.47-20.6L142.47-20.6Q140.57-20.6 139.82-20.1 139.07-19.6 139.07-18.5L139.07-18.5Q139.07-17.28 140.41-16.49 141.75-15.7 143.62-14.95L143.62-14.95Q146.75-13.73 148.66-11.94 150.57-10.15 150.57-7.4L150.57-7.4Q150.57-5.35 149.62-3.56 148.67-1.78 146.57-0.66 144.47 0.45 141.02 0.45ZM163.4 0.45L163.4 0.45Q160.68 0.45 158.94-0.06 157.2-0.58 156.24-1.24 155.28-1.9 154.9-2.35L154.9-2.35 156.75-7.1Q157.85-6.2 159.57-5.33 161.28-4.45 163.55-4.45L163.55-4.45Q165.33-4.45 166.04-5.18 166.75-5.9 166.75-6.75L166.75-6.75Q166.75-7.93 165.13-8.88 163.5-9.83 161.35-10.75L161.35-10.75Q160.08-11.3 158.65-12.15 157.23-13 156.22-14.4 155.2-15.8 155.2-18L155.2-18Q155.2-21.38 157.67-23.39 160.13-25.4 164.65-25.4L164.65-25.4Q167.55-25.4 169.57-24.54 171.58-23.68 172.25-23L172.25-23 170.55-18.5Q169.58-19.25 168.08-19.93 166.58-20.6 164.85-20.6L164.85-20.6Q162.95-20.6 162.2-20.1 161.45-19.6 161.45-18.5L161.45-18.5Q161.45-17.28 162.79-16.49 164.13-15.7 166-14.95L166-14.95Q169.13-13.73 171.04-11.94 172.95-10.15 172.95-7.4L172.95-7.4Q172.95-5.35 172-3.56 171.05-1.78 168.95-0.66 166.85 0.45 163.4 0.45ZM195.01 0L188.76 0 188.76-24.9 194.41-24.9 194.71-20.5Q195.11-21.48 195.95-22.58 196.79-23.68 198.27-24.44 199.76-25.2 202.11-25.2L202.11-25.2Q202.84-25.2 203.39-25.1 203.94-25 204.41-24.8L204.41-24.8 203.01-18.25Q202.21-19.05 200.56-19.05L200.56-19.05Q198.64-19.05 197.41-18.26 196.19-17.48 195.6-16.5 195.01-15.53 195.01-15L195.01-15 195.01 0ZM218.24 0.65L218.24 0.65Q214.04 0.65 211.47-1.11 208.89-2.88 207.72-5.79 206.54-8.7 206.54-12.15L206.54-12.15Q206.54-15.78 207.88-18.81 209.22-21.85 211.8-23.68 214.39-25.5 218.14-25.5L218.14-25.5Q223.74-25.5 225.97-22.26 228.19-19.03 228.19-13.1L228.19-13.1Q228.19-12.58 228.17-11.78 228.14-10.98 228.09-10.4L228.09-10.4 213.09-10.4Q213.24-7.45 214.75-5.78 216.27-4.1 219.29-4.1L219.29-4.1Q220.84-4.1 222.62-4.79 224.39-5.48 225.24-6.45L225.24-6.45 227.24-1.7Q226.24-1.03 224.08-0.19 221.92 0.65 218.24 0.65ZM213.04-14.3L213.04-14.3 221.84-14.3Q221.84-16.93 221.38-18.31 220.92-19.7 220.12-20.23 219.32-20.75 218.29-20.75L218.29-20.75Q215.74-20.75 214.47-18.86 213.19-16.98 213.04-14.3ZM239.62 0.7L239.62 0.7Q237.32 0.7 235.81-0.33 234.3-1.35 233.56-3.05 232.82-4.75 232.82-6.8L232.82-6.8Q232.82-7.95 233.41-9.33 234-10.7 235.5-11.95 237-13.2 239.72-14 242.45-14.8 246.72-14.8L246.72-14.8 246.72-15.95Q246.72-17.8 245.83-19.03 244.95-20.25 242.27-20.25L242.27-20.25Q240.32-20.25 238.46-19.59 236.6-18.93 235.72-17.95L235.72-17.95 233.72-22.75Q235.22-23.78 237.73-24.64 240.25-25.5 243.32-25.5L243.32-25.5Q247.02-25.5 249.07-24.38 251.12-23.25 251.95-21.19 252.77-19.13 252.77-16.35L252.77-16.35 252.77 0 247.42 0 246.97-3.55Q244.37 0.7 239.62 0.7ZM242.27-4.1L242.27-4.1Q243.4-4.1 244.68-5.01 245.97-5.93 246.72-7.35L246.72-7.35 246.72-10.9Q246.47-10.95 246.18-10.95 245.9-10.95 245.52-10.95L245.52-10.95Q244.15-10.95 242.63-10.64 241.12-10.33 240.07-9.55 239.02-8.78 239.02-7.4L239.02-7.4Q239.02-5.6 239.82-4.85 240.62-4.1 242.27-4.1ZM268.35 0.7L268.35 0.7Q265.32 0.7 263.1-0.93 260.87-2.55 259.66-5.5 258.45-8.45 258.45-12.4L258.45-12.4Q258.45-18.55 260.96-22.03 263.47-25.5 268.45-25.5L268.45-25.5Q271-25.5 272.76-24.24 274.52-22.98 275.05-20.6L275.05-20.6 274.6-24.25 274.6-38 280.5-38 280.5 0 275.05 0 275.05-5.1Q274.37-2.53 272.67-0.91 270.97 0.7 268.35 0.7ZM269.8-4.25L269.8-4.25Q271.6-4.25 273.02-6.14 274.45-8.03 274.45-12.3L274.45-12.3Q274.45-16.2 273.35-18.32 272.25-20.45 269.95-20.45L269.95-20.45Q268.77-20.45 267.61-19.73 266.45-19 265.67-17.24 264.9-15.48 264.9-12.4L264.9-12.4Q264.9-8.28 266.32-6.26 267.75-4.25 269.8-4.25ZM305.06 0L298.66 0 298.66-24.9 304.41-24.9 304.56-21.6Q305.53-23.1 307.27-24.3 309.01-25.5 311.91-25.5L311.91-25.5Q314.43-25.5 316.11-24.38 317.78-23.25 318.63-21.2L318.63-21.2Q319.58-22.78 321.37-24.14 323.16-25.5 326.36-25.5L326.36-25.5Q330.11-25.5 331.96-23.1 333.81-20.7 333.81-16.45L333.81-16.45 333.81 0 327.46 0 327.46-15.8Q327.46-17.88 326.66-19.16 325.86-20.45 324.06-20.45L324.06-20.45Q322.31-20.45 320.88-19.16 319.46-17.88 319.46-15.8L319.46-15.8 319.46 0 313.06 0 313.06-15.8Q313.06-17.88 312.14-19.21 311.23-20.55 309.46-20.55L309.46-20.55Q307.66-20.55 306.36-19.21 305.06-17.88 305.06-15.8L305.06-15.8 305.06 0ZM351.44 0.5L351.44 0.5Q345.94 0.5 342.94-2.95 339.94-6.4 339.94-12.5L339.94-12.5Q339.94-18.65 343.04-22.08 346.14-25.5 351.64-25.5L351.64-25.5Q357.16-25.5 360.05-21.96 362.94-18.43 362.94-12.5L362.94-12.5Q362.94-6.58 359.95-3.04 356.96 0.5 351.44 0.5ZM351.54-4.5L351.54-4.5Q356.29-4.5 356.29-12.5L356.29-12.5Q356.29-20.55 351.54-20.55L351.54-20.55Q349.19-20.55 347.89-18.69 346.59-16.82 346.59-12.5L346.59-12.5Q346.59-8.2 347.89-6.35 349.19-4.5 351.54-4.5ZM375.27 0L369.02 0 369.02-24.9 374.67-24.9 374.97-20.5Q375.37-21.48 376.2-22.58 377.04-23.68 378.53-24.44 380.02-25.2 382.37-25.2L382.37-25.2Q383.09-25.2 383.64-25.1 384.19-25 384.67-24.8L384.67-24.8 383.27-18.25Q382.47-19.05 380.82-19.05L380.82-19.05Q378.89-19.05 377.67-18.26 376.44-17.48 375.85-16.5 375.27-15.53 375.27-15L375.27-15 375.27 0ZM398.49 0.65L398.49 0.65Q394.29 0.65 391.72-1.11 389.14-2.88 387.97-5.79 386.79-8.7 386.79-12.15L386.79-12.15Q386.79-15.78 388.13-18.81 389.47-21.85 392.06-23.68 394.64-25.5 398.39-25.5L398.39-25.5Q403.99-25.5 406.22-22.26 408.44-19.03 408.44-13.1L408.44-13.1Q408.44-12.58 408.42-11.78 408.39-10.98 408.34-10.4L408.34-10.4 393.34-10.4Q393.49-7.45 395.01-5.78 396.52-4.1 399.54-4.1L399.54-4.1Q401.09-4.1 402.87-4.79 404.64-5.48 405.49-6.45L405.49-6.45 407.49-1.7Q406.49-1.03 404.33-0.19 402.17 0.65 398.49 0.65ZM393.29-14.3L393.29-14.3 402.09-14.3Q402.09-16.93 401.63-18.31 401.17-19.7 400.37-20.23 399.57-20.75 398.54-20.75L398.54-20.75Q395.99-20.75 394.72-18.86 393.44-16.98 393.29-14.3Z" opacity="1" transform="matrix(1,0,0,1,0,0)" fill="#000000" class="slogan-text-1" data-fill-palette-color="secondary" id="text-1"></path></svg></g></svg></g></svg></g></svg></g></svg></g></svg></g></svg></g><g mask="url(#b2c9e23f-1f7a-4791-ab30-7880633bda91)"><g transform="matrix(2.802285714285714, 0, 0, 2.802285714285714, 57.64571428571429, 1)"><svg xmlns="http://www.w3.org/2000/svg" xmlns:xlink="http://www.w3.org/1999/xlink" version="1.1" x="0" y="0" viewBox="0 0 100 87.5" style="enable-background:new 0 0 100 87.5;" xml:space="preserve" id="none" width="100" height="87.5" class="icon-none" data-fill-palette-color="accent"><path d="M50 12.5S37.5 0 0 0V75C37.891 75 50 87.5 50 87.5S62.109 75 100 75V0C62.5 0 50 12.5 50 12.5M12.5 12.5C28.388 13.83 38.135 17.505 43.75 20.483V70.825C38.135 67.859 28.388 64.184 12.5 62.842zM87.5 62.842C71.606 64.185 61.859 67.86 56.25 70.825V20.483C61.859 17.504 71.606 13.83 87.5 12.5z" fill="#000000" data-fill-palette-color="accent"></path></svg></g></g></svg></g><defs></defs></svg><rect width="395.52" height="247.2" fill="none" stroke="none" visibility="hidden"></rect></g></svg></g></svg>